# xmcd
#
# Track frame offsets:
#	150
#	10363
#	24630
#	44219
#	63696
#	95099
#	114089
#	130877
#	146816
#	163841
#	181744
#	199744
#	219444
#	235619
#	254734
#	265197
#	281958
#	303302
#
# Disc length: 4343 seconds
#
# Revision: 117346374
# Processed by: cddbd v1.5.1PL0 Copyright (c) Steve Scherf et al.
# Submitted via: EasyCDDAExtractor 8.0.2.1
#
DISCID=1610f512
DTITLE=Foxy Brown - Broken Silence
DYEAR=2001
DGENRE=Rap
TTITLE0=Intro - Broken Silence
TTITLE1=Fallin' (Featuring Young Gavin)
TTITLE2=Oh Yeah (Featuring Spragga Benz)
TTITLE3=B.K. Anthem
TTITLE4=The Letter (Featuring Ron Isley)
TTITLE5=730
TTITLE6=Candy (Featuring Kelis)
TTITLE7=Tables Will Turn (Featuring Baby Cham)
TTITLE8=Hood Scriptures
TTITLE9=Run Dem (Featuring Baby Cham)
TTITLE10='Bout My Paper (Featuring Mystikal)
TTITLE11=Run Your S*** (Featuring CNN)
TTITLE12=Na Na Be like
TTITLE13=Gangsta Boggie
TTITLE14=I Don't Care (Featuring Kori)
TTITLE15=So Hot (Featuring Young Gavin)
TTITLE16=Saddest Day (Featuring Wayne wonder)
TTITLE17=Broken Silence (Featuring Darius)
EXTD=
EXTT0=
EXTT1=
EXTT2=
EXTT3=
EXTT4=
EXTT5=
EXTT6=
EXTT7=
EXTT8=
EXTT9=
EXTT10=
EXTT11=
EXTT12=
EXTT13=
EXTT14=
EXTT15=
EXTT16=
EXTT17=
PLAYORDER=
